<svg width="41" height="41" xmlns="http://www.w3.org/2000/svg" xmlns:xlink="http://www.w3.org/1999/xlink" overflow="hidden"><defs><clipPath id="clip0"><rect x="274" y="452" width="41" height="41"/></clipPath></defs><g clip-path="url(#clip0)" transform="translate(-274 -452)"><path d="M282.542 457.552 279.979 457.552 279.979 487.448 309.448 487.448 309.448 484.885 282.542 484.885 282.542 457.552Z" fill="#009999"/><path d="M309.448 482.323 303.042 482.323 303.042 457.552 309.448 457.552Z" fill="#009999"/><path d="M300.479 482.323 294.073 482.323 294.073 466.094 300.479 466.094Z" fill="#009999"/><path d="M291.51 482.323 285.104 482.323 285.104 473.781 291.51 473.781Z" fill="#009999"/><path d="M298.771 463.42 298.771 457.552 292.903 457.552 295.235 459.884 284.929 470.189 286.133 471.394 296.439 461.093 298.771 463.42Z" fill="#009999"/></g></svg>