<svg width="41" height="42" xmlns="http://www.w3.org/2000/svg" xmlns:xlink="http://www.w3.org/1999/xlink" overflow="hidden"><defs><clipPath id="clip0"><rect x="160" y="102" width="41" height="42"/></clipPath></defs><g clip-path="url(#clip0)" transform="translate(-160 -102)"><path d="M27.3333 20.9271C27.3333 18.4854 29.0677 15.7453 29.8933 12.9163 28.5922 11.1078 26.8485 9.66374 24.8293 8.72232 24.799 8.70981 24.7846 8.67513 24.7971 8.64481 24.8031 8.6302 24.8147 8.61858 24.8293 8.61256 26.418 7.87824 27.8375 6.8233 28.999 5.51407 28.0336 4.14648 26.4438 3.35782 24.7708 3.41667 21.0552 3.41667 21.1833 5.125 17.5104 5.125 13.8375 5.125 13.9656 3.41667 10.25 3.41667 6.53438 3.41667 4.69792 6.49167 4.69792 10.25 4.69792 14.0083 7.6875 17.724 7.6875 20.9271 7.6875 23.9594 7.26042 26.5219 7.26042 28.6146 7.26042 30.7073 7.21771 37.5833 10.25 37.5833 13.2823 37.5833 13.2396 31.3479 13.2396 28.6146 13.2396 25.8813 13.5813 21.7812 17.5104 21.7812 21.4396 21.7812 21.7812 25.8813 21.7812 28.6146 21.7812 31.3479 21.7385 37.5833 24.7708 37.5833 27.8031 37.5833 27.7604 30.7073 27.7604 28.6146 27.7604 26.5219 27.3333 23.9594 27.3333 20.9271Z" fill="#009999" transform="matrix(1 0 0 1.02439 160 102)"/><path d="M32.2401 3.13394 32.2401 3.13394C32.9289 5.56118 34.6292 7.57445 36.9068 8.65997L36.9068 8.65997C34.6292 9.74527 32.929 11.7585 32.2401 14.1856L32.2401 14.1856C31.5509 11.7585 29.8506 9.74536 27.5729 8.65997L27.5729 8.65997C29.8506 7.57437 31.551 5.56114 32.2401 3.13394Z" fill="#009999" transform="matrix(1 0 0 1.02439 160 102)"/></g></svg>