<svg width="142" height="142" xmlns="http://www.w3.org/2000/svg" xmlns:xlink="http://www.w3.org/1999/xlink" overflow="hidden"><defs><clipPath id="clip0"><rect x="1218" y="1784" width="142" height="142"/></clipPath><clipPath id="clip1"><rect x="1217" y="1784" width="123" height="123"/></clipPath><clipPath id="clip2"><rect x="1217" y="1784" width="123" height="123"/></clipPath><clipPath id="clip3"><rect x="1217" y="1784" width="123" height="123"/></clipPath><clipPath id="clip4"><rect x="1237" y="1804" width="123" height="123"/></clipPath><clipPath id="clip5"><rect x="1237" y="1804" width="123" height="123"/></clipPath><clipPath id="clip6"><rect x="1237" y="1804" width="123" height="123"/></clipPath></defs><g clip-path="url(#clip0)" transform="translate(-1218 -1784)"><g clip-path="url(#clip1)"><g clip-path="url(#clip2)"><g clip-path="url(#clip3)"><path d="M1223.08 1819.58 1223.08 1870.42 1334.92 1870.42 1334.92 1819.58 1223.08 1819.58ZM1327.29 1862.79 1230.71 1862.79 1230.71 1827.21 1327.29 1827.21 1327.29 1862.79Z" fill="#009999"/><path d="M1235.79 1842.46 1294.25 1842.46 1294.25 1847.54 1235.79 1847.54Z" fill="#009999"/><path d="M1235.79 1832.29 1258.67 1832.29 1258.67 1837.38 1235.79 1837.38Z" fill="#009999"/><path d="M1299.33 1839.92 1322.21 1839.92 1322.21 1847.54 1299.33 1847.54Z" fill="#009999"/><path d="M1293.23 1854.4C1292.98 1854.66 1292.6 1855.17 1292.34 1855.42 1292.22 1855.29 1292.09 1855.04 1291.84 1854.91 1290.44 1853.64 1288.79 1853.39 1286.62 1854.4 1285.35 1854.91 1285.1 1854.66 1285.1 1854.53 1284.34 1853.39 1282.69 1853.13 1281.54 1853.9 1280.4 1854.66 1280.14 1856.31 1280.91 1857.45 1282.69 1859.87 1285.48 1860.38 1288.66 1858.98 1288.66 1858.98 1288.66 1858.98 1288.66 1858.98 1289.04 1859.61 1289.93 1860.5 1291.71 1860.63 1291.84 1860.63 1291.96 1860.63 1292.09 1860.63 1294.5 1860.63 1296.16 1858.85 1297.05 1857.71 1297.3 1857.33 1297.55 1857.07 1297.81 1856.82 1298.57 1856.06 1299.71 1855.55 1300.99 1855.17 1301.11 1856.95 1302 1858.34 1303.53 1859.11 1305.18 1860 1307.34 1859.87 1309.12 1858.73 1309.5 1858.47 1309.75 1858.22 1310.14 1857.96 1310.14 1857.96 1310.26 1857.84 1310.26 1857.84 1310.39 1857.96 1310.64 1858.09 1310.77 1858.22 1312.17 1859.11 1313.95 1858.98 1314.84 1858.85 1315.47 1858.85 1318.4 1858.85 1318.4 1858.85 1318.4 1858.85 1318.4 1858.85 1318.4 1858.85 1319.79 1858.85 1320.94 1857.71 1320.94 1856.31 1320.94 1854.91 1319.79 1853.77 1318.4 1853.77L1316.49 1853.77C1315.73 1853.77 1314.84 1853.77 1314.2 1853.9L1314.2 1853.77C1313.95 1853.77 1313.57 1853.77 1313.31 1853.77 1313.31 1853.77 1313.19 1853.64 1313.19 1853.64 1312.55 1853.13 1311.15 1852.12 1309.25 1852.63 1308.1 1852.88 1307.34 1853.51 1306.83 1854.02 1306.7 1854.15 1306.58 1854.28 1306.45 1854.4 1306.32 1854.4 1306.32 1854.53 1306.2 1854.53 1306.32 1853.77 1306.45 1852.63 1305.81 1851.48 1304.92 1850.08 1303.4 1849.58 1300.99 1849.96 1298.44 1850.46 1296.16 1851.48 1294.5 1853.01 1294 1853.51 1293.61 1854.02 1293.23 1854.4Z" fill="#009999"/></g></g></g><g clip-path="url(#clip4)"><g clip-path="url(#clip5)"><g clip-path="url(#clip6)"><path d="M1243.08 1839.58 1243.08 1890.42 1354.92 1890.42 1354.92 1839.58 1243.08 1839.58ZM1347.29 1882.79 1250.71 1882.79 1250.71 1847.21 1347.29 1847.21 1347.29 1882.79Z" fill="#009999"/><path d="M1255.79 1862.46 1314.25 1862.46 1314.25 1867.54 1255.79 1867.54Z" fill="#009999"/><path d="M1255.79 1852.29 1278.67 1852.29 1278.67 1857.38 1255.79 1857.38Z" fill="#009999"/><path d="M1319.33 1859.92 1342.21 1859.92 1342.21 1867.54 1319.33 1867.54Z" fill="#009999"/><path d="M1313.23 1874.4C1312.98 1874.66 1312.6 1875.17 1312.34 1875.42 1312.22 1875.29 1312.09 1875.04 1311.84 1874.91 1310.44 1873.64 1308.79 1873.39 1306.62 1874.4 1305.35 1874.91 1305.1 1874.66 1305.1 1874.53 1304.34 1873.39 1302.69 1873.13 1301.54 1873.9 1300.4 1874.66 1300.14 1876.31 1300.91 1877.45 1302.69 1879.87 1305.48 1880.38 1308.66 1878.98 1308.66 1878.98 1308.66 1878.98 1308.66 1878.98 1309.04 1879.61 1309.93 1880.5 1311.71 1880.63 1311.84 1880.63 1311.96 1880.63 1312.09 1880.63 1314.5 1880.63 1316.16 1878.85 1317.05 1877.71 1317.3 1877.33 1317.55 1877.07 1317.81 1876.82 1318.57 1876.06 1319.71 1875.55 1320.99 1875.17 1321.11 1876.95 1322 1878.34 1323.53 1879.11 1325.18 1880 1327.34 1879.87 1329.12 1878.72 1329.5 1878.47 1329.75 1878.22 1330.14 1877.96 1330.14 1877.96 1330.26 1877.84 1330.26 1877.84 1330.39 1877.96 1330.64 1878.09 1330.77 1878.22 1332.17 1879.11 1333.95 1878.98 1334.84 1878.85 1335.47 1878.85 1338.4 1878.85 1338.4 1878.85 1338.4 1878.85 1338.4 1878.85 1338.4 1878.85 1339.79 1878.85 1340.94 1877.71 1340.94 1876.31 1340.94 1874.91 1339.79 1873.77 1338.4 1873.77L1336.49 1873.77C1335.73 1873.77 1334.84 1873.77 1334.2 1873.9L1334.2 1873.77C1333.95 1873.77 1333.57 1873.77 1333.31 1873.77 1333.31 1873.77 1333.19 1873.64 1333.19 1873.64 1332.55 1873.13 1331.15 1872.12 1329.25 1872.62 1328.1 1872.88 1327.34 1873.51 1326.83 1874.02 1326.7 1874.15 1326.58 1874.28 1326.45 1874.4 1326.32 1874.4 1326.32 1874.53 1326.2 1874.53 1326.32 1873.77 1326.45 1872.62 1325.81 1871.48 1324.92 1870.08 1323.4 1869.58 1320.99 1869.96 1318.44 1870.46 1316.16 1871.48 1314.5 1873.01 1314 1873.51 1313.61 1874.02 1313.23 1874.4Z" fill="#009999"/></g></g></g></g></svg>