<svg width="42" height="42" xmlns="http://www.w3.org/2000/svg" xmlns:xlink="http://www.w3.org/1999/xlink" overflow="hidden"><defs><clipPath id="clip0"><rect x="557" y="86" width="42" height="42"/></clipPath></defs><g clip-path="url(#clip0)" transform="translate(-557 -86)"><path d="M593.312 107.438C593.094 107.438 592.919 107.306 592.787 107.175 592.569 106.956 592.438 106.562 592.438 106.169 592.438 105.6 592.831 105.162 593.181 104.9L593.225 104.856C594.056 105.294 594.188 105.731 594.188 106.125 594.188 106.825 593.794 107.438 593.312 107.438ZM581.412 98.8187C581.281 99.125 580.931 99.3438 580.625 99.3438 580.494 99.3438 580.362 99.3 580.275 99.2562 578.875 98.6 577.344 98.25 575.9 98.25 575.069 98.25 574.237 98.3812 573.406 98.6 572.925 98.7312 572.444 98.4688 572.312 97.9875 572.181 97.5062 572.444 97.025 572.925 96.8938 573.888 96.6312 574.894 96.5 575.856 96.5 577.519 96.5 579.312 96.8938 580.931 97.6375 581.412 97.8562 581.631 98.3812 581.412 98.8187ZM596.506 102.188C595.412 102.012 594.056 102.319 592.963 102.931 591.956 102.713 590.425 102.713 589.025 103.194 586.969 98.2937 581.237 94.75 575.812 94.75 573.931 94.75 572.05 95.1875 570.344 95.975L564.963 93.4375C564.612 93.2625 564.219 93.6125 564.35 93.9625L566.1 98.9062C565.05 100 564.175 101.269 563.562 102.669 563.475 102.931 563.256 103.106 562.95 103.194L561.375 103.588C560.588 103.762 560.062 104.463 560.062 105.294L560.062 108.706C560.062 109.494 560.588 110.194 561.375 110.412L562.994 110.806C563.256 110.894 563.475 111.069 563.606 111.331 564.35 113.037 565.487 114.569 566.888 115.837 567.019 115.969 567.15 116.144 567.194 116.363L567.85 120.344C567.938 120.781 568.287 121.087 568.725 121.087L571.612 121.087C572.05 121.087 572.4 120.781 572.487 120.344L572.706 118.944C573.713 119.206 574.763 119.337 575.856 119.337 577.037 119.337 578.263 119.163 579.4 118.856L579.662 120.344C579.75 120.781 580.1 121.087 580.537 121.087L583.425 121.087C583.862 121.087 584.213 120.781 584.3 120.344L584.956 116.363C585 116.144 585.088 115.969 585.263 115.837 587.931 113.519 589.812 110.456 589.812 107 589.812 106.256 589.725 105.556 589.55 104.856 590.075 104.681 590.644 104.55 591.169 104.55 590.862 105.031 590.688 105.556 590.688 106.125 590.644 107 590.994 107.831 591.562 108.444 592.044 108.925 592.656 109.231 593.312 109.231 594.756 109.231 595.938 107.875 595.938 106.169 595.938 105.338 595.631 104.594 595.019 104.025 595.456 103.938 595.85 103.894 596.244 103.938 596.725 104.025 597.162 103.675 597.25 103.194 597.294 102.713 596.987 102.275 596.506 102.188Z" fill="#009999"/></g></svg>