<svg width="41" height="41" xmlns="http://www.w3.org/2000/svg" xmlns:xlink="http://www.w3.org/1999/xlink" overflow="hidden"><defs><clipPath id="clip0"><rect x="466" y="103" width="41" height="41"/></clipPath></defs><g clip-path="url(#clip0)" transform="translate(-466 -103)"><path d="M500.39 115.376 501.064 118.802 501.934 118.802 501.064 114.371 478.812 118.794C478.789 118.799 478.789 118.803 478.812 118.803L483.152 118.803Z" fill="#009999"/><path d="M495.321 110.733 496.608 113.95 497.462 113.78 495.797 109.616 473.349 118.794C473.338 118.799 473.339 118.803 473.349 118.803L475.585 118.803Z" fill="#009999"/><path d="M505.297 120.083 467.708 120.083 467.708 137.167 505.297 137.167ZM504.443 136.312 468.562 136.312 468.562 120.938 504.443 120.938Z" fill="#009999"/><path d="M486.503 132.469C488.201 132.469 489.578 130.748 489.578 128.625 489.578 126.502 488.201 124.781 486.503 124.781 484.804 124.781 483.428 126.502 483.428 128.625 483.428 130.748 484.804 132.469 486.503 132.469ZM486.503 125.635C487.727 125.635 488.723 126.976 488.723 128.625 488.723 130.274 487.727 131.615 486.503 131.615 485.278 131.615 484.282 130.274 484.282 128.625 484.282 126.976 485.278 125.635 486.503 125.635Z" fill="#009999"/><path d="M475.361 130.273C476.273 130.526 477.218 129.992 477.472 129.079 477.555 128.779 477.555 128.462 477.471 128.162 477.314 127.586 476.865 127.136 476.289 126.979 475.376 126.725 474.431 127.259 474.177 128.171 474.094 128.472 474.094 128.79 474.177 129.091 474.335 129.667 474.785 130.116 475.361 130.273ZM475.823 127.771C476.295 127.771 476.677 128.153 476.677 128.625 476.677 129.097 476.295 129.479 475.823 129.479 475.351 129.479 474.969 129.097 474.969 128.625 474.969 128.153 475.351 127.771 475.823 127.771Z" fill="#009999"/><path d="M497.53 130.3C498.34 130.111 498.907 129.38 498.89 128.549L498.89 128.549C498.901 127.984 498.607 127.458 498.121 127.172 497.311 126.665 496.243 126.91 495.736 127.72 495.567 127.991 495.476 128.304 495.473 128.624 495.473 129.569 496.239 130.335 497.185 130.335 497.301 130.335 497.416 130.323 497.53 130.3ZM497.181 127.771C497.653 127.771 498.036 128.153 498.036 128.625 498.036 129.097 497.653 129.479 497.181 129.479 496.71 129.479 496.327 129.097 496.327 128.625 496.327 128.153 496.71 127.771 497.181 127.771Z" fill="#009999"/><path d="M501.453 134.604 502.734 133.323 502.734 123.927 501.453 122.646 471.979 122.646 470.271 124.354 470.271 132.896 471.979 134.604ZM471.125 124.709 472.334 123.5 501.099 123.5 501.88 124.281 501.88 132.97 501.099 133.75 472.334 133.75 471.125 132.543Z" fill="#009999"/></g></svg>