<svg width="113" height="113" xmlns="http://www.w3.org/2000/svg" xmlns:xlink="http://www.w3.org/1999/xlink" overflow="hidden"><defs><clipPath id="clip0"><rect x="401" y="356" width="113" height="113"/></clipPath></defs><g clip-path="url(#clip0)" transform="translate(-401 -356)"><path d="M446.944 397.173C446.294 397.173 445.767 397.7 445.767 398.35L445.755 457.229 439.88 457.229 439.88 424.271 437.526 424.271 437.526 457.229 431.641 457.229 431.641 398.35C431.641 397.7 431.114 397.173 430.464 397.173 429.813 397.173 429.286 397.7 429.286 398.35L429.286 459.583 448.109 459.583 448.121 398.35C448.121 397.7 447.594 397.173 446.944 397.173Z" fill="#C55A11"/><path d="M438.703 381.896C443.254 381.896 446.943 378.207 446.943 373.656 446.943 369.106 443.254 365.417 438.703 365.417 434.153 365.417 430.464 369.106 430.464 373.656 430.469 378.205 434.155 381.891 438.703 381.896ZM438.703 367.771C441.954 367.771 444.589 370.406 444.589 373.656 444.589 376.907 441.954 379.542 438.703 379.542 435.453 379.542 432.818 376.907 432.818 373.656 432.822 370.407 435.454 367.775 438.703 367.771Z" fill="#C55A11"/><path d="M475.193 381.896C479.743 381.896 483.432 378.207 483.432 373.656 483.432 369.106 479.743 365.417 475.193 365.417 470.642 365.417 466.953 369.106 466.953 373.656 466.958 378.205 470.644 381.891 475.193 381.896ZM475.193 367.771C478.443 367.771 481.078 370.406 481.078 373.656 481.078 376.907 478.443 379.542 475.193 379.542 471.942 379.542 469.307 376.907 469.307 373.656 469.311 370.407 471.944 367.775 475.193 367.771Z" fill="#C55A11"/><path d="M495.049 417.072 489.932 393.177C489.67 392.281 489.241 391.442 488.668 390.705 486.611 388.296 483.97 386.454 480.998 385.356 477.272 383.887 473.128 383.884 469.4 385.349 466.401 386.459 463.738 388.324 461.669 390.764 461.101 391.513 460.679 392.363 460.426 393.269L457.296 407.909C457.294 407.915 457.288 407.919 457.282 407.917 457.278 407.916 457.275 407.913 457.274 407.909L455.264 394.148C455.168 393.401 454.942 392.677 454.596 392.008 454.349 391.55 454.054 391.119 453.716 390.723 451.399 388.266 448.509 386.42 445.305 385.352 441.033 383.887 436.394 383.887 432.122 385.352 428.89 386.43 425.977 388.295 423.647 390.78 423.328 391.163 423.048 391.576 422.813 392.015 422.467 392.684 422.241 393.408 422.146 394.155L418.733 417.47C418.42 418.955 418.773 420.503 419.698 421.707 420.58 422.662 421.843 423.171 423.141 423.094 423.791 423.094 424.318 422.567 424.318 421.917 424.318 421.267 423.791 420.74 423.141 420.74 422.527 420.797 421.919 420.584 421.475 420.157 421.015 419.462 420.866 418.605 421.066 417.796L424.473 394.489C424.531 394.013 424.67 393.55 424.885 393.122 425.034 392.844 425.208 392.582 425.406 392.337 427.464 390.155 430.032 388.519 432.879 387.575 434.756 386.928 436.728 386.6 438.714 386.604 440.699 386.598 442.67 386.929 444.545 387.581 447.367 388.516 449.914 390.133 451.961 392.289 452.177 392.548 452.366 392.828 452.524 393.125 452.739 393.553 452.877 394.015 452.933 394.491L455.81 414.157C455.83 414.248 455.862 414.335 455.904 414.417L455.322 417.133C454.789 420.469 456.402 421.967 457.848 422.638 458.438 422.912 459.138 422.655 459.412 422.065 459.685 421.475 459.428 420.775 458.838 420.502 458.069 420.149 457.327 419.512 457.637 417.566L462.71 393.84C462.875 393.264 463.142 392.723 463.498 392.241 465.302 390.128 467.618 388.514 470.224 387.554 473.422 386.287 476.984 386.289 480.18 387.561 482.759 388.511 485.053 390.104 486.845 392.188 487.205 392.659 487.479 393.189 487.655 393.755L492.738 417.505C493.059 419.512 492.316 420.146 491.547 420.502 490.955 420.771 490.694 421.469 490.963 422.061 491.232 422.652 491.93 422.914 492.522 422.645 492.526 422.643 492.531 422.64 492.536 422.638 493.99 421.967 495.596 420.468 495.049 417.072Z" fill="#C55A11"/><path d="M484.608 409.986 484.608 398.35C484.608 397.7 484.081 397.173 483.431 397.173 482.781 397.173 482.254 397.7 482.254 398.35L482.254 410.146 487.769 430.156 462.616 430.156 468.087 410.461 468.129 398.35C468.129 397.7 467.602 397.173 466.952 397.173 466.302 397.173 465.775 397.7 465.775 398.35L465.775 409.986 459.519 432.51 465.775 432.51 465.775 459.583 484.598 459.583 484.598 432.51 490.861 432.51ZM468.129 432.51 474.014 432.51 474.014 457.229 468.129 457.229ZM482.243 457.229 476.37 457.229 476.37 432.51 482.249 432.51Z" fill="#C55A11"/></g></svg>