<svg width="68" height="68" xmlns="http://www.w3.org/2000/svg" xmlns:xlink="http://www.w3.org/1999/xlink" overflow="hidden"><defs><clipPath id="clip0"><rect x="693" y="418" width="68" height="68"/></clipPath></defs><g clip-path="url(#clip0)" transform="translate(-693 -418)"><path d="M747.4 463.05C744.283 460.5 740.317 458.8 736.35 457.667 733.517 456.817 730.4 456.25 727 456.25 723.883 456.25 720.767 456.817 717.65 457.667 713.683 458.8 709.717 460.783 706.6 463.05 705.183 464.183 704.333 465.883 704.333 467.583L704.333 478.917 749.667 478.917 749.667 467.583C749.667 465.883 748.817 464.183 747.4 463.05Z"/><path d="M715.95 432.45C716.375 432.45 716.729 432.308 716.942 432.025L716.942 432.025C719.562 429.475 723.104 427.917 727 427.917 734.792 427.917 741.167 434.292 741.167 442.083L741.167 445.342 733.021 448.033C732.667 447.892 732.312 447.75 731.958 447.75 730.754 447.75 729.833 448.671 729.833 449.875 729.833 451.079 730.754 452 731.958 452 732.808 452 733.588 451.504 733.942 450.725L745.204 446.971C745.771 446.758 746.196 446.263 746.196 445.625L746.196 439.25C746.196 438.471 745.558 437.833 744.779 437.833L743.504 437.833C741.592 430.538 734.933 425.083 727 425.083 722.396 425.083 718.217 426.925 715.1 429.9 714.746 430.183 714.533 430.538 714.533 431.033 714.533 431.812 715.171 432.45 715.95 432.45Z"/><path d="M738.263 443.288C738.333 442.862 738.333 442.508 738.333 442.083 738.333 435.85 733.233 430.75 727 430.75 720.767 430.75 715.667 435.85 715.667 442.083 715.667 448.317 720.767 453.417 727 453.417 727.213 453.417 727.496 453.417 727.708 453.346L727.708 449.875 727.708 449.875C727.708 449.237 727.85 448.6 728.133 447.962 728.629 446.971 729.479 446.192 730.612 445.837L738.263 443.288Z"/></g></svg>