<svg width="68" height="68" xmlns="http://www.w3.org/2000/svg" xmlns:xlink="http://www.w3.org/1999/xlink" overflow="hidden"><defs><clipPath id="clip0"><rect x="640" y="312" width="68" height="68"/></clipPath></defs><g clip-path="url(#clip0)" transform="translate(-640 -312)"><path d="M649.917 333.25 671.875 333.25 671.875 348.125 649.917 348.125Z"/><path d="M676.125 333.25 698.083 333.25 698.083 348.125 676.125 348.125Z"/><path d="M649.917 352.375 671.875 352.375 671.875 374.333 649.917 374.333Z"/><path d="M676.125 352.375 698.083 352.375 698.083 374.333 676.125 374.333Z"/><path d="M688.167 326.096 680.375 326.096 684.625 321.846 681.65 318.8 676.125 324.325 676.125 318.304 671.875 318.304 671.875 324.325 666.35 318.8 663.375 321.846 667.625 326.096 659.833 326.096 659.833 330.346 688.167 330.346Z"/></g></svg>