<svg width="80" height="68" xmlns="http://www.w3.org/2000/svg" xmlns:xlink="http://www.w3.org/1999/xlink" overflow="hidden"><defs><clipPath id="clip0"><rect x="2518" y="1181" width="80" height="68"/></clipPath><clipPath id="clip1"><path d="M2544.13 1199.3 2593.13 1194.79 2597.66 1243.98 2548.65 1248.49Z" fill-rule="evenodd" clip-rule="evenodd"/></clipPath><clipPath id="clip2"><path d="M2544.13 1199.3 2593.13 1194.79 2597.66 1243.98 2548.65 1248.49Z" fill-rule="evenodd" clip-rule="evenodd"/></clipPath><clipPath id="clip3"><path d="M2544.13 1199.3 2593.13 1194.79 2597.66 1243.98 2548.65 1248.49Z" fill-rule="evenodd" clip-rule="evenodd"/></clipPath><clipPath id="clip4"><rect x="2517" y="1181" width="63" height="62"/></clipPath><clipPath id="clip5"><rect x="2517" y="1181" width="63" height="62"/></clipPath><clipPath id="clip6"><rect x="2517" y="1181" width="63" height="62"/></clipPath></defs><g clip-path="url(#clip0)" transform="translate(-2518 -1181)"><g clip-path="url(#clip1)"><g clip-path="url(#clip2)"><g clip-path="url(#clip3)"><path d="M43.8298 38.7547 37.4219 32.3469C36.5504 31.4754 35.3714 31.1678 34.2436 31.3729L31.988 29.1173C33.9873 26.5542 35.1663 23.2734 35.1663 19.7875 35.1663 11.3291 28.2458 4.40861 19.7875 4.40861 11.3291 4.40861 4.40861 11.3291 4.40861 19.7875 4.40861 28.2458 11.3291 35.1663 19.7875 35.1663 23.2734 35.1663 26.5029 33.9873 29.1173 31.988L31.3729 34.2436C31.1678 35.3714 31.4754 36.5504 32.3469 37.4219L38.7547 43.8298C39.4724 44.5474 40.3952 44.9063 41.3179 44.9063 42.2406 44.9063 43.1633 44.5474 43.881 43.8298 45.2139 42.3944 45.2139 40.1388 43.8298 38.7547ZM19.7362 32.0393C12.9695 32.0393 7.43312 26.5029 7.43312 19.7362 7.43312 12.9695 12.9695 7.43312 19.7362 7.43312 26.5029 7.43312 32.0393 12.9695 32.0393 19.7362 32.0393 26.5029 26.5029 32.0393 19.7362 32.0393Z" transform="matrix(0.995795 -0.0916079 0.0919552 0.999571 2544.13 1199.3)"/></g></g></g><g clip-path="url(#clip4)"><g clip-path="url(#clip5)"><g clip-path="url(#clip6)"><path d="M14.6146 52.1043 14.6146 8.89586 30.5001 8.89586 30.5001 22.2397 46.3856 22.2397 46.3856 52.1043 14.6146 52.1043ZM34.3126 10.4844 42.2553 18.4271 34.3126 18.4271 34.3126 10.4844ZM34.3126 5.08335 10.8021 5.08335 10.8021 55.9168 50.1981 55.9168 50.1981 19.0626 34.3126 5.08335Z" transform="matrix(1 0 0 1.01639 2518 1181)"/><path d="M18.4271 28.5938 42.5731 28.5938 42.5731 31.1355 18.4271 31.1355Z" transform="matrix(1 0 0 1.01639 2518 1181)"/><path d="M18.4271 23.5105 26.6876 23.5105 26.6876 26.0522 18.4271 26.0522Z" transform="matrix(1 0 0 1.01639 2518 1181)"/><path d="M18.4271 33.6772 42.5731 33.6772 42.5731 36.2189 18.4271 36.2189Z" transform="matrix(1 0 0 1.01639 2518 1181)"/><path d="M18.4271 38.7605 42.5731 38.7605 42.5731 41.3022 18.4271 41.3022Z" transform="matrix(1 0 0 1.01639 2518 1181)"/><path d="M18.4271 43.8439 42.5731 43.8439 42.5731 46.3856 18.4271 46.3856Z" transform="matrix(1 0 0 1.01639 2518 1181)"/></g></g></g></g></svg>