<svg width="68" height="68" xmlns="http://www.w3.org/2000/svg" xmlns:xlink="http://www.w3.org/1999/xlink" overflow="hidden"><defs><clipPath id="clip0"><rect x="793" y="298" width="68" height="68"/></clipPath></defs><g clip-path="url(#clip0)" transform="translate(-793 -298)"><path d="M831.791 337.171C832.589 337.946 832.607 339.221 831.832 340.018 831.819 340.032 831.805 340.046 831.791 340.059L828.333 341.198 827.723 340.589 828.862 337.13C829.688 336.348 830.987 336.366 831.791 337.171ZM847.417 316.297 827.442 336.317 824.875 344.047 832.645 341.483 852.625 321.508Z"/><path d="M856.975 314.835 854.087 311.946C853.461 311.306 852.434 311.294 851.794 311.92 851.785 311.929 851.776 311.938 851.768 311.946L848.919 314.795 854.087 319.958 856.934 317.111C857.573 316.549 857.635 315.575 857.073 314.937 857.042 314.901 857.009 314.867 856.975 314.835Z"/><path d="M811.417 344.042 822.638 344.042 823.577 341.208 811.417 341.208 811.417 344.042Z"/><path d="M811.417 327.042 833.692 327.042 836.52 324.208 811.417 324.208 811.417 327.042Z"/><path d="M842.583 334.55 842.583 356.083 807.167 356.083 807.167 312.167 814.958 312.167 814.958 316.417 834.792 316.417 834.792 312.167 842.583 312.167 842.583 318.132 845.912 314.795 845.912 314.795 846.034 314.673 846.833 313.874 846.833 310.75C846.833 309.185 845.565 307.917 844 307.917L831.958 307.917 831.958 306.5C831.958 304.935 830.69 303.667 829.125 303.667L820.625 303.667C819.06 303.667 817.792 304.935 817.792 306.5L817.792 307.917 805.75 307.917C804.185 307.917 802.917 309.185 802.917 310.75L802.917 357.5C802.917 359.065 804.185 360.333 805.75 360.333L844 360.333C845.565 360.333 846.833 359.065 846.833 357.5L846.833 330.3ZM823.362 307.112C823.762 306.711 824.308 306.49 824.875 306.5 826.049 306.5 827 307.451 827 308.625 827 309.799 826.049 310.75 824.875 310.75 823.701 310.75 822.75 309.799 822.75 308.625 822.74 308.058 822.961 307.512 823.362 307.112Z"/><path d="M811.417 335.542 825.192 335.542 828.02 332.708 811.417 332.708 811.417 335.542Z"/></g></svg>