<svg width="68" height="68" xmlns="http://www.w3.org/2000/svg" xmlns:xlink="http://www.w3.org/1999/xlink" overflow="hidden"><defs><clipPath id="clip0"><rect x="813" y="117" width="68" height="68"/></clipPath></defs><g clip-path="url(#clip0)" transform="translate(-813 -117)"><path d="M873.562 170.55 864.708 161.696C863.504 160.492 861.875 160.067 860.317 160.35L857.2 157.233C859.963 153.692 861.592 149.158 861.592 144.342 861.592 132.654 852.029 123.092 840.342 123.092 828.654 123.092 819.092 132.654 819.092 144.342 819.092 156.029 828.654 165.592 840.342 165.592 845.158 165.592 849.621 163.962 853.233 161.2L856.35 164.317C856.067 165.875 856.492 167.504 857.696 168.708L866.55 177.562C867.542 178.554 868.817 179.05 870.092 179.05 871.367 179.05 872.642 178.554 873.633 177.562 875.475 175.579 875.475 172.462 873.562 170.55ZM840.271 161.271C830.921 161.271 823.271 153.621 823.271 144.271 823.271 134.921 830.921 127.271 840.271 127.271 849.621 127.271 857.271 134.921 857.271 144.271 857.271 153.621 849.621 161.271 840.271 161.271Z"/></g></svg>