<svg width="68" height="68" xmlns="http://www.w3.org/2000/svg" xmlns:xlink="http://www.w3.org/1999/xlink" overflow="hidden"><defs><clipPath id="clip0"><rect x="557" y="430" width="68" height="68"/></clipPath></defs><g clip-path="url(#clip0)" transform="translate(-557 -430)"><path d="M580.908 457.413C579.722 456.276 579.911 454.154 581.333 452.667 582.756 451.179 584.867 450.901 586.054 452.038 587.24 453.174 587.052 455.296 585.629 456.784 584.206 458.271 582.096 458.552 580.908 457.413Z"/><path d="M577.66 447.365C578.176 447.859 578.194 448.679 577.7 449.195 577.206 449.711 576.386 449.729 575.87 449.235 575.354 448.74 575.336 447.921 575.83 447.405 576.325 446.889 577.144 446.871 577.66 447.365Z"/><path d="M609.417 472.5C609.423 471.226 608.395 470.188 607.121 470.182 606.69 470.18 606.267 470.298 605.9 470.524L595.99 476.191C596.124 476.836 596.119 477.502 595.977 478.145 595.458 480.297 593.517 481.804 591.302 481.773L581.019 481.773 581.019 479.454 591.451 479.454C592.731 479.477 593.787 478.457 593.809 477.177 593.831 475.897 592.812 474.841 591.532 474.818 591.505 474.818 591.477 474.818 591.451 474.818L577.542 474.818C576.575 474.818 575.627 475.088 574.806 475.598L558.417 483.511 566.531 491.625C570.279 487.876 575.151 486.409 580.439 486.409L591.271 486.409C591.765 486.408 592.245 486.251 592.643 485.958L608.561 474.285C609.1 473.849 609.415 473.193 609.417 472.5Z"/><path d="M576.833 437.088 592.455 452.044 589.923 453.543 578.03 442.156 575.823 442.241 570.671 447.623 570.662 449.812 588.95 467.32 591.132 467.221 596.285 461.839 596.31 459.656 596.298 459.646 598.831 458.148 601.393 460.601 590.127 472.369 565.567 448.857 576.833 437.088Z"/><path d="M588.796 456.268 597.391 451.179C597.502 450.603 597.125 450.046 596.549 449.935 596.442 449.914 596.332 449.91 596.224 449.923L593.718 450.217 585.807 442.62 593.952 439.723C594.646 439.476 595.4 439.451 596.109 439.652L603.975 442.281C608.803 443.519 613.614 443.34 618.02 440.899L623.583 450.938 607.614 453.685 607.608 453.685 605.644 454.022 605.644 454.016 601.018 454.795 591.321 460.533C590.142 461.23 588.622 460.84 587.925 459.661 587.228 458.483 587.618 456.962 588.796 456.265Z"/></g></svg>